<svg xmlns="http://www.w3.org/2000/svg" width="94.969" height="94.87" viewBox="0 0 94.969 94.87">
  <metadata><?xpacket begin="﻿" id="W5M0MpCehiHzreSzNTczkc9d"?>
<x:xmpmeta xmlns:x="adobe:ns:meta/" x:xmptk="Adobe XMP Core 5.6-c140 79.160451, 2017/05/06-01:08:21        ">
   <rdf:RDF xmlns:rdf="http://www.w3.org/1999/02/22-rdf-syntax-ns#">
      <rdf:Description rdf:about=""/>
   </rdf:RDF>
</x:xmpmeta>
                                                                                                    
                                                                                                    
                                                                                                    
                                                                                                    
                                                                                                    
                                                                                                    
                                                                                                    
                                                                                                    
                                                                                                    
                                                                                                    
                                                                                                    
                                                                                                    
                                                                                                    
                                                                                                    
                                                                                                    
                                                                                                    
                                                                                                    
                                                                                                    
                                                                                                    
                                                                                                    
                           
<?xpacket end="w"?></metadata>
<defs>
    <style>
      .cls-1 {
        fill: #f66;
        fill-rule: evenodd;
      }
    </style>
  </defs>
  <path id="mark_color" data-name="mark color" class="cls-1" d="M793.775,5972.21a2,2,0,0,1-.155-0.39l-5.359-19.5a4.418,4.418,0,0,0-1.648-2.37,5.53,5.53,0,0,0-3.516-.96l-0.136.01a2.452,2.452,0,0,1-.271-0.02,1.926,1.926,0,0,1-1.157-3.03,2.253,2.253,0,0,1,1.807-.67,9,9,0,0,1,6.991,3.11,8.5,8.5,0,0,1,1.474,2.81l0.029,0.09,5.3,19.29a1.039,1.039,0,0,0,.537.25h5.094a2.251,2.251,0,0,1,.535.07l0.051,0.03a6.941,6.941,0,0,1,5.687,5.37,6.746,6.746,0,0,1-9.177,7.51,6.918,6.918,0,0,1-4.167-6.88,6.336,6.336,0,0,1,.84-2.55A4.515,4.515,0,0,1,793.775,5972.21Zm7.458,8.15a3.026,3.026,0,1,0,1.238-5.81h-0.079A3.023,3.023,0,0,0,801.233,5980.36Zm33.663-29.05a4.769,4.769,0,0,1-.028.56,7.992,7.992,0,0,1-2.157,5.17c-0.293.31-.6,0.59-0.921,0.87l-0.033.03a6.845,6.845,0,0,1,.877,3.41,26.546,26.546,0,0,1-.739,3.97c-0.508,2.15-1.086,4.29-1.7,6.42l-0.011.04s0.027-.12-0.007.03a3.622,3.622,0,0,1-3.071,2.69,6.393,6.393,0,0,1,.676,1.84,6.747,6.747,0,0,1-9.185,7.47,6.928,6.928,0,0,1-4.106-7.34,6.37,6.37,0,0,1,.671-1.93h-2.583a1.894,1.894,0,0,1-.93-0.25,1.922,1.922,0,0,1-.385-2.92,2.19,2.19,0,0,1,1.315-.54h14.012a69.066,69.066,0,0,0,2.282-9.32c0.034-.24.061-0.61,0.061-0.61a12.534,12.534,0,0,0-1.129-2.54,2.359,2.359,0,0,1-.2-1.3c0.256-1.22,1.858-1.75,2.737-2.94a4.434,4.434,0,0,0,.814-2.5c0.006-.3-0.082-0.2-0.2-0.2-6.359-.05-12.719,0-19.079,0a2.47,2.47,0,0,1-.417-0.03,3.65,3.65,0,0,1-3.029-4.16c0.1-.63.25-1.27,0.326-1.91,0.456-3.88-.478-8.05-3.237-10.84a2.626,2.626,0,0,0-2.695-.67s0.046,0.24.093,0.47a16.176,16.176,0,0,1,.515,4.48c-0.258,3.28-1.941,6.3-3.742,9.1-0.627.97-1.289,1.92-2,2.83a2.333,2.333,0,0,1-.366.36,1.906,1.906,0,0,1-2.951-1.75,1.59,1.59,0,0,1,.471-1,26.326,26.326,0,0,0,4.509-8.03,6.7,6.7,0,0,0,.333-2.87,29.878,29.878,0,0,0-.586-3.15,3.978,3.978,0,0,1-.079-1.05,3.091,3.091,0,0,1,.937-1.9,5.393,5.393,0,0,1,3.827-1.34,6.059,6.059,0,0,1,4.167,1.71c4.108,3.92,5.341,10.38,4.2,15.93l-0.024.11h18.84A3.809,3.809,0,0,1,834.9,5951.31Zm-0.022.37c0-.06,0-0.09,0-0.09,0-.06-0.007-0.19,0-0.11a0.4,0.4,0,0,1-.006.2c-0.007.05-.016,0.1-0.026,0.15Zm-13.684,22.87h-0.059a3.025,3.025,0,0,0-1.142,5.82A3.027,3.027,0,1,0,821.19,5974.55Zm10-23.41a1.042,1.042,0,0,0-.011.15C831.184,5951.23,831.192,5951.13,831.19,5951.14Zm16.041,32.75a47.5,47.5,0,1,1-39.309-74.19H808.1a47.723,47.723,0,0,1,22.407,5.65l0.157,0.09,0.308,0.23a1.233,1.233,0,0,1,.329.69,1.289,1.289,0,0,1-1.453,1.38,3.545,3.545,0,0,1-.968-0.45,45.034,45.034,0,1,0,10.924,8.02,44.676,44.676,0,0,0-5.766-4.86l-0.277-.27a1.25,1.25,0,0,1-.244-0.73,1.291,1.291,0,0,1,1.609-1.19,1.593,1.593,0,0,1,.491.27A47.391,47.391,0,0,1,847.231,5983.89Z" transform="translate(-760.5 -5909.69)"/>
</svg>
