<svg xmlns="http://www.w3.org/2000/svg" width="301.939" height="182.97" viewBox="0 0 301.939 182.97">
  <metadata><?xpacket begin="﻿" id="W5M0MpCehiHzreSzNTczkc9d"?>
<x:xmpmeta xmlns:x="adobe:ns:meta/" x:xmptk="Adobe XMP Core 5.6-c140 79.160451, 2017/05/06-01:08:21        ">
   <rdf:RDF xmlns:rdf="http://www.w3.org/1999/02/22-rdf-syntax-ns#">
      <rdf:Description rdf:about=""/>
   </rdf:RDF>
</x:xmpmeta>
                                                                                                    
                                                                                                    
                                                                                                    
                                                                                                    
                                                                                                    
                                                                                                    
                                                                                                    
                                                                                                    
                                                                                                    
                                                                                                    
                                                                                                    
                                                                                                    
                                                                                                    
                                                                                                    
                                                                                                    
                                                                                                    
                                                                                                    
                                                                                                    
                                                                                                    
                                                                                                    
                           
<?xpacket end="w"?></metadata>
<defs>
    <style>
      .cls-1 {
        fill: #ffffff;
        fill-rule: evenodd;
      }
    </style>
  </defs>
  <path id="Logo_secondary_dark" data-name="Logo secondary dark" class="cls-1" d="M1286.48,4841.26a7.945,7.945,0,0,0,1.81.76c0.72,0.22,1.61.46,2.65,0.69,1.48,0.36,2.79.71,3.92,1.07a12.294,12.294,0,0,1,2.83,1.25,4.819,4.819,0,0,1,1.71,1.74,4.932,4.932,0,0,1,.58,2.49,6.064,6.064,0,0,1-2.45,5.08,10.57,10.57,0,0,1-6.59,1.87,16.245,16.245,0,0,1-5.3-.89,12.783,12.783,0,0,1-4.46-2.58l1.38-2.05a15.019,15.019,0,0,0,3.99,2.4,11.583,11.583,0,0,0,4.34.8,7.825,7.825,0,0,0,4.48-1.13,3.7,3.7,0,0,0,1.67-3.23,2.87,2.87,0,0,0-.44-1.63,3.825,3.825,0,0,0-1.32-1.13,10.077,10.077,0,0,0-2.18-.87c-0.88-.25-1.9-0.52-3.05-0.78-1.34-.33-2.5-0.65-3.48-0.98a10.632,10.632,0,0,1-2.43-1.12,3.911,3.911,0,0,1-1.42-1.53,5.061,5.061,0,0,1-.47-2.3,6.582,6.582,0,0,1,.69-3.07,6.368,6.368,0,0,1,1.87-2.21,8.6,8.6,0,0,1,2.76-1.31,12.3,12.3,0,0,1,3.37-.45,12.967,12.967,0,0,1,4.85.87,9.577,9.577,0,0,1,3.52,2.3l-1.47,1.78a8.233,8.233,0,0,0-3.14-2.01,11.33,11.33,0,0,0-3.85-.66,9.774,9.774,0,0,0-2.23.24,5.234,5.234,0,0,0-1.8.78,3.911,3.911,0,0,0-1.23,1.36,4,4,0,0,0-.44,1.94,3.14,3.14,0,0,0,.31,1.51A2.651,2.651,0,0,0,1286.48,4841.26Zm-7.97,3.99h-19.83a9.821,9.821,0,0,0,2.74,6.19,8.193,8.193,0,0,0,2.63,1.81,7.974,7.974,0,0,0,3.19.64,8.288,8.288,0,0,0,2.27-.31,9.376,9.376,0,0,0,2.05-.84,7.366,7.366,0,0,0,1.67-1.32,5.946,5.946,0,0,0,1.14-1.71l2.62,0.71a7.693,7.693,0,0,1-1.51,2.34,10.143,10.143,0,0,1-2.27,1.82,11.023,11.023,0,0,1-2.85,1.21,12.293,12.293,0,0,1-3.21.42,11.29,11.29,0,0,1-8.38-3.59,11.908,11.908,0,0,1-2.42-3.85,12.484,12.484,0,0,1-.87-4.68,12.234,12.234,0,0,1,.87-4.61,11.641,11.641,0,0,1,2.42-3.79,11.863,11.863,0,0,1,3.68-2.58,11.306,11.306,0,0,1,12.94,2.61,12.235,12.235,0,0,1,3.21,8.33c0,0.24-.01.47-0.02,0.71A2.5,2.5,0,0,1,1278.51,4845.25Zm-3.68-5.72a9.111,9.111,0,0,0-1.87-2.65,8.028,8.028,0,0,0-2.65-1.74,8.276,8.276,0,0,0-3.21-.63,8.191,8.191,0,0,0-3.2.63,7.927,7.927,0,0,0-2.65,1.74,8.45,8.45,0,0,0-1.83,2.67,10.17,10.17,0,0,0-.83,3.38h17.11A9.365,9.365,0,0,0,1274.83,4839.53Zm-24.74,16.24-8.56-11.9-4.99,4.63v7.27h-3.03v-32.53h3.03v22.1l13.06-12.74h3.43l-9.49,9.49,9.84,13.68h-3.29Zm-24.6-26.7a1.83,1.83,0,1,1,1.83-1.83A1.829,1.829,0,0,1,1225.49,4829.07Zm-8.64,26.96a4.481,4.481,0,0,1-3.29-1.18,4.4,4.4,0,0,1-1.21-3.32v-28.29h3.03v27.27a2.782,2.782,0,0,0,.72,2.03,2.644,2.644,0,0,0,2,.73,5.943,5.943,0,0,0,1.16-.13,7.9,7.9,0,0,0,1.25-.36l0.53,2.45a9.792,9.792,0,0,1-2.07.58A11.914,11.914,0,0,1,1216.85,4856.03Zm-123.39-3.38a10.228,10.228,0,0,1-3.34,2.6,9.439,9.439,0,0,1-4.25.96,9.3,9.3,0,0,1-5.21-1.49,11.757,11.757,0,0,1-3.66-3.77v14.3h-3.03v-32.7h2.72v4.5a11.292,11.292,0,0,1,3.7-3.54,9.492,9.492,0,0,1,4.94-1.36,9.851,9.851,0,0,1,4.44,1.01,11.164,11.164,0,0,1,3.49,2.67,12.435,12.435,0,0,1,2.3,3.85,12.66,12.66,0,0,1,.82,4.5,14.193,14.193,0,0,1-.75,4.64A11.916,11.916,0,0,1,1093.46,4852.65Zm-0.86-12.03a10.1,10.1,0,0,0-1.83-2.99,8.8,8.8,0,0,0-2.74-2.05,7.84,7.84,0,0,0-3.41-.75,6.836,6.836,0,0,0-2.4.46,10.974,10.974,0,0,0-2.37,1.25,8.223,8.223,0,0,0-1.89,1.83,4.937,4.937,0,0,0-.96,2.2v7.13a10.775,10.775,0,0,0,1.36,2.32,9.632,9.632,0,0,0,1.87,1.85,8.641,8.641,0,0,0,2.28,1.22,7.428,7.428,0,0,0,5.9-.35,8.481,8.481,0,0,0,2.6-2.12,9.548,9.548,0,0,0,1.68-2.99,10.578,10.578,0,0,0,.57-3.45A9.7,9.7,0,0,0,1092.6,4840.62Zm-26.84,12.03a11.4,11.4,0,0,1-3.66,2.6,11.645,11.645,0,0,1-9.26,0,11.293,11.293,0,0,1-3.66-2.6,11.885,11.885,0,0,1-2.38-3.83,12.813,12.813,0,0,1,.02-9.23,12.138,12.138,0,0,1,2.41-3.83,11.641,11.641,0,0,1,3.65-2.63,11.333,11.333,0,0,1,9.22,0,11.8,11.8,0,0,1,3.66,2.63,12.292,12.292,0,0,1,2.4,3.83,12.675,12.675,0,0,1,0,9.23A12.292,12.292,0,0,1,1065.76,4852.65Zm-0.52-12.1a9.358,9.358,0,0,0-1.82-2.98,8.861,8.861,0,0,0-2.68-2.01,7.334,7.334,0,0,0-3.25-.73,7.45,7.45,0,0,0-3.27.73,8.313,8.313,0,0,0-2.68,2.03,10.331,10.331,0,0,0-1.82,10.31,9.292,9.292,0,0,0,1.78,2.94,8.091,8.091,0,0,0,2.67,1.98,7.661,7.661,0,0,0,3.28.72,7.491,7.491,0,0,0,3.27-.74,8.831,8.831,0,0,0,2.7-2,9.6,9.6,0,0,0,1.82-2.96A10.25,10.25,0,0,0,1065.24,4840.55Zm-27.08,2.25a10.482,10.482,0,0,0-1.36-5.92,4.547,4.547,0,0,0-3.99-1.96,6.8,6.8,0,0,0-2.56.51,9.617,9.617,0,0,0-4.32,3.5,8.863,8.863,0,0,0-1.23,2.62v14.22h-3.03v-32.53h3.03v14.57a10.819,10.819,0,0,1,3.88-4.14,9.806,9.806,0,0,1,5.26-1.52,7.237,7.237,0,0,1,3.4.74,6,6,0,0,1,2.28,2.05,9.215,9.215,0,0,1,1.26,3.16,19.044,19.044,0,0,1,.41,4.08v13.59h-3.03V4842.8Zm-30.39,13.41a16.245,16.245,0,0,1-5.3-.89,12.824,12.824,0,0,1-4.453-2.58l1.381-2.05a14.752,14.752,0,0,0,3.992,2.4,11.546,11.546,0,0,0,4.34.8,7.847,7.847,0,0,0,4.48-1.13,3.7,3.7,0,0,0,1.67-3.23,2.8,2.8,0,0,0-.45-1.63,3.785,3.785,0,0,0-1.31-1.13,9.972,9.972,0,0,0-2.19-.87c-0.87-.25-1.89-0.52-3.05-0.78-1.33-.33-2.49-0.65-3.47-0.98a10.632,10.632,0,0,1-2.43-1.12,3.943,3.943,0,0,1-1.426-1.53,5.05,5.05,0,0,1-.467-2.3,6.57,6.57,0,0,1,.69-3.07,6.3,6.3,0,0,1,1.873-2.21,8.5,8.5,0,0,1,2.76-1.31,12.231,12.231,0,0,1,3.36-.45,13.02,13.02,0,0,1,4.86.87,9.661,9.661,0,0,1,3.52,2.3l-1.47,1.78a8.233,8.233,0,0,0-3.14-2.01,11.43,11.43,0,0,0-3.86-.66,9.685,9.685,0,0,0-2.22.24,5.2,5.2,0,0,0-1.81.78,3.789,3.789,0,0,0-1.22,1.36,4,4,0,0,0-.45,1.94,3.261,3.261,0,0,0,.31,1.51,2.614,2.614,0,0,0,1.03,1,7.851,7.851,0,0,0,1.8.76c0.73,0.22,1.61.46,2.65,0.69,1.49,0.36,2.79.71,3.92,1.07a12.1,12.1,0,0,1,2.83,1.25,4.849,4.849,0,0,1,1.72,1.74,5.037,5.037,0,0,1,.58,2.49,6.064,6.064,0,0,1-2.45,5.08A10.6,10.6,0,0,1,1007.77,4856.21Zm219.24-.44h-3.03v-23.22h3.03v23.22Zm-41.77.8c-6,2.3-6.12-6.38-5.34-9.38s4.8-8.71,4.8-8.71l-4.08-.12a38.026,38.026,0,0,1-8.88,14.86,12.021,12.021,0,0,1-1.29,1.28c-0.25.24-.4,0.37-0.4,0.37s-0.03.01-.08,0.03a7.259,7.259,0,0,1-3.94,1.66c-3.56.23-4.19-5.13-4.19-5.13-4.05,5.49-8.06,5.94-9.72,3.02s-1.04-6.84-.77-9.77a20.593,20.593,0,0,1,1.19-4.5,4.611,4.611,0,0,1-2.13-.71c0.86,11.07-7.38,15.21-7.38,15.21-6.22,4.14-12.93,1.05-13.5-5.06-0.49-5.19,4.4-16.92,10.72-17.98s6.81,3.69,6.81,3.69c-6.33-1.36-10.45,8.65-10.45,8.65-4.12,10.67-.38,10.5,1.06,10.32,4.11-.5,6.7-7.9,7.57-11.37s-1.93-3.83-1.93-3.83c0.56-3.47,4.32-2.72,5.47-2.64s1.05,1.51,3.16,1.43a2.544,2.544,0,0,0,1.79-.55c0.08-.15.15-0.3,0.22-0.45v-0.05a0.1,0.1,0,0,1,.03-0.01c1.16-2.32,2.59-4.35,4.03-4.93a4.207,4.207,0,0,1,5,.94c-3.47,4.59-5.13,12.25-4.1,15.49s3.38-1.67,3.38-1.67c1.4-7.38,3.96-12.02,6.84-13.86a3.658,3.658,0,0,1,4.86.45,24.86,24.86,0,0,0-4.45,12.2c-0.05,1.93.31,4.27,1.12,4.09a1.721,1.721,0,0,0,.38-0.16,11.42,11.42,0,0,0,1.18-1.01c0.23-.26.38-0.45,0.38-0.45,0.09-.09.17-0.15,0.26-0.23,3.77-4.28,5.12-11.07,5.12-11.07-2.46-1.62-1.62-6.12-1.62-6.12,0.72-5.76,5.88-5.22,5.88-5.22-1.02,1.26-.3,4.92-0.3,4.92,2.18,4.55,7.74,2.7,10.32,1.29s1.86,1.59,1.86,1.59a37.808,37.808,0,0,0-6.84,10.95c-2.34,6.15-.24,7.3.96,7s3.3-2.94,3.68-6.35a18.221,18.221,0,0,1,1.79-6.04c1.93-2.06,4.25-.64,2.75,3.62S1191.24,4854.27,1185.24,4856.57Zm-59.41,3.52c8.72,0.83,17.18,1.49,24.01,2.05,12.46,1.01,26.15,2.28,38.36-1.2,5.93-1.69,12.62-5.44,14.65-11.66-0.28.88-.14,2.09-0.38,3.03-4.2,16.87-25.08,15.74-38.23,14.08-12.36-1.57-26.54-2.73-39.1-3.2a41.512,41.512,0,0,1-3.19,8.74c-2.76,5.47-7.56,11.4-12.18,13.56s-13.8,1.56-18.78-4.32-5.77-14.7,4.68-19.08,23.64-2.82,23.64-2.82a22.862,22.862,0,0,0,1.68-9.13s-3.03,4.68-7.08,6.43c-7.52,3.25-7.2-12.43-2.94-19.09s7.92-5.1,8.82-3.45c0,0-5.19,8.89-4.59,14.39,0.57,5.18,5.31-1.58,5.97-2.84s0.6-8.28,5.35-12.42c0,0,3-1.56,4.98.48,0,0-3.43,2.67-4.14,13.92A96.222,96.222,0,0,1,1125.83,4860.09Zm-27.18,5.15s-8.89,3.64-5.52,11.06c2.24,4.92,8.34,4.59,8.34,4.59s5.85,0,10.54-6.21c5.94-7.88,6.37-12.03,6.37-12.03S1105.28,4862.04,1098.65,4865.24Zm36.12-99.03a2.384,2.384,0,0,1-.15-0.39l-5.36-19.5a4.369,4.369,0,0,0-1.65-2.37,5.508,5.508,0,0,0-3.51-.96l-0.14.01a2.452,2.452,0,0,1-.27-0.02,1.929,1.929,0,0,1-1.16-3.03,2.263,2.263,0,0,1,1.81-.67,9.012,9.012,0,0,1,6.99,3.11,8.312,8.312,0,0,1,1.47,2.81l0.03,0.09,5.3,19.29a1.055,1.055,0,0,0,.54.25h5.09a2.275,2.275,0,0,1,.54.07c0.02,0.01.03,0.02,0.05,0.03a6.943,6.943,0,0,1,5.69,5.37,6.746,6.746,0,0,1-9.18,7.51,6.927,6.927,0,0,1-4.17-6.88,6.51,6.51,0,0,1,.84-2.55A4.539,4.539,0,0,1,1134.77,4766.21Zm7.46,8.15a3.027,3.027,0,1,0,1.24-5.81h-0.08A3.024,3.024,0,0,0,1142.23,4774.36Zm33.67-29.05a5.01,5.01,0,0,1-.03.56,8,8,0,0,1-2.16,5.17,12.61,12.61,0,0,1-.92.87l-0.03.03a6.817,6.817,0,0,1,.87,3.41,26.908,26.908,0,0,1-.73,3.97c-0.51,2.15-1.09,4.29-1.7,6.42l-0.01.04a0.214,0.214,0,1,0-.01.03,3.625,3.625,0,0,1-3.07,2.69,6.679,6.679,0,0,1,.68,1.84,6.755,6.755,0,0,1-9.19,7.47,6.943,6.943,0,0,1-4.11-7.34,6.8,6.8,0,0,1,.67-1.93h-2.58a1.856,1.856,0,0,1-1.31-3.17,2.176,2.176,0,0,1,1.31-.54h14.01a68.5,68.5,0,0,0,2.29-9.32c0.03-.24.06-0.61,0.06-0.61a12.537,12.537,0,0,0-1.13-2.54,2.274,2.274,0,0,1-.2-1.3c0.25-1.22,1.85-1.75,2.73-2.94a4.494,4.494,0,0,0,.82-2.5c0-.3-0.09-0.2-0.2-0.2-6.36-.05-12.72,0-19.08,0a2.5,2.5,0,0,1-.42-0.03,3.658,3.658,0,0,1-3.03-4.16c0.11-.63.25-1.27,0.33-1.91,0.45-3.88-.48-8.05-3.24-10.84a2.616,2.616,0,0,0-2.69-.67s0.04,0.24.09,0.47a15.982,15.982,0,0,1,.51,4.48c-0.25,3.28-1.94,6.3-3.74,9.1-0.63.97-1.29,1.92-2,2.83a2.494,2.494,0,0,1-.37.36,1.906,1.906,0,0,1-2.95-1.75,1.631,1.631,0,0,1,.47-1,26.039,26.039,0,0,0,4.51-8.03,6.716,6.716,0,0,0,.34-2.87,30.147,30.147,0,0,0-.59-3.15,3.867,3.867,0,0,1-.08-1.05,3.084,3.084,0,0,1,.94-1.9,5.394,5.394,0,0,1,3.83-1.34,6.039,6.039,0,0,1,4.16,1.71c4.11,3.92,5.34,10.38,4.2,15.93l-0.02.11h18.84A3.815,3.815,0,0,1,1175.9,4745.31Zm-0.03.37a0.314,0.314,0,0,1,.01-0.09c0-.06-0.01-0.19-0.01-0.11a0.59,0.59,0,0,1,0,.2l-0.03.15Zm-13.68,22.87h-0.06A3.023,3.023,0,1,0,1162.19,4768.55Zm10-23.41a1.145,1.145,0,0,0-.01.15A1.423,1.423,0,0,1,1172.19,4745.14Zm16.04,32.75a47.5,47.5,0,1,1-39.31-74.19h0.18a47.7,47.7,0,0,1,22.4,5.65l0.16,0.09,0.31,0.23a1.275,1.275,0,0,1,.33.69,1.291,1.291,0,0,1-1.46,1.38,3.523,3.523,0,0,1-.96-0.45,45.046,45.046,0,1,0,10.92,8.02,44.577,44.577,0,0,0-5.77-4.86l-0.27-.27a1.234,1.234,0,0,1,1.36-1.92,1.511,1.511,0,0,1,.49.27A47.392,47.392,0,0,1,1188.23,4777.89Z" transform="translate(-998.031 -4703.69)"/>
</svg>
