<svg xmlns="http://www.w3.org/2000/svg" viewBox="0 0 594 1200">
  <path d="M589.8 257.5v-158C589.8 44.8 545 0 490.3 0H106C51.3 0 6.5 44.8 6.5 99.5V146H0v57.9h6.5v52.4H.4v88.4h6.1V368H.4v86h6.1v646.5c0 54.7 44.8 99.5 99.5 99.5h384.3c54.7 0 99.5-44.8 99.5-99.5v-757h3.8v-86h-3.8z" fill="#c1c1c2"/>
  <path class="st1" d="M337.1 81.9h-81.3c-3.4 0-6.2-2.8-6.2-6.2 0-3.4 2.8-6.2 6.2-6.2h81.3c3.4 0 6.2 2.8 6.2 6.2 0 3.5-2.8 6.2-6.2 6.2z"/>
  <path d="M296.9 1163.7h-5.4c-5.1-.2-9.7-2.2-14.3-4.4-3.5-1.7-6.6-4-9.4-6.6-2.5-2.3-4.5-5.1-6.5-7.9-2.1-3.1-3.6-6.4-4.8-9.9-.6-1.9-1.2-3.9-1.3-6-.2-3-1.2-6-.7-9 .6-3.9.9-7.8 2.3-11.5 1.3-3.4 2.7-6.6 4.7-9.6 2.2-3.4 5-6.4 8.1-9.1 4.5-3.8 9.6-6.5 15.3-8.2 4.2-1.2 8.5-2 12.9-1.8 3 .1 5.9.5 8.8 1.5 1.4.5 2.9.6 4.4 1.1 2.6.9 5 2.3 7.4 3.6 2.9 1.6 5.4 3.7 7.8 5.9 2.4 2.1 4.2 4.8 6 7.5 2 3 3.7 6.2 4.7 9.7.8 2.9 1.8 5.9 1.6 9.1-.1 3.4 0 6.8-.2 10.2-.1 1.7-.6 3.3-1.1 4.8-.8 3-2 5.8-3.4 8.5-2.3 4.5-5.4 8.2-9 11.6-3.9 3.7-8.4 6.4-13.4 8.1-4.8 1.9-9.8 3-14.5 2.4z" fill="#c1c1c2" stroke="#3d3e42" stroke-width="6" stroke-miterlimit="10"/>
  <circle class="st1" cx="296.9" cy="40.9" r="7.7"/>
  <circle class="st1" cx="206.1" cy="77.5" r="10.7"/>
</svg>
