<svg id="logo_color" data-name="logo color" xmlns="http://www.w3.org/2000/svg" width="301.938" height="63.41" viewBox="0 0 301.938 63.41">
  <metadata><?xpacket begin="﻿" id="W5M0MpCehiHzreSzNTczkc9d"?>
<x:xmpmeta xmlns:x="adobe:ns:meta/" x:xmptk="Adobe XMP Core 5.6-c140 79.160451, 2017/05/06-01:08:21        ">
   <rdf:RDF xmlns:rdf="http://www.w3.org/1999/02/22-rdf-syntax-ns#">
      <rdf:Description rdf:about=""/>
   </rdf:RDF>
</x:xmpmeta>
                                                                                                    
                                                                                                    
                                                                                                    
                                                                                                    
                                                                                                    
                                                                                                    
                                                                                                    
                                                                                                    
                                                                                                    
                                                                                                    
                                                                                                    
                                                                                                    
                                                                                                    
                                                                                                    
                                                                                                    
                                                                                                    
                                                                                                    
                                                                                                    
                                                                                                    
                                                                                                    
                           
<?xpacket end="w"?></metadata>
<defs>
    <style>
      .cls-1 {
        fill: #5bd9e7;
      }

      .cls-1, .cls-2 {
        fill-rule: evenodd;
      }

      .cls-2 {
        fill: #f66;
      }
    </style>
  </defs>
  <path id="strict" class="cls-1" d="M520.483,5719.26a7.831,7.831,0,0,0,1.8.76c0.727,0.22,1.611.46,2.651,0.69,1.485,0.36,2.791.71,3.92,1.07a12.266,12.266,0,0,1,2.829,1.25,4.826,4.826,0,0,1,1.715,1.74,4.973,4.973,0,0,1,.579,2.49,6.057,6.057,0,0,1-2.449,5.08,10.588,10.588,0,0,1-6.594,1.87,16.256,16.256,0,0,1-5.3-.89,12.806,12.806,0,0,1-4.455-2.58l1.382-2.05a14.9,14.9,0,0,0,3.987,2.4,11.584,11.584,0,0,0,4.343.8,7.823,7.823,0,0,0,4.478-1.13,3.689,3.689,0,0,0,1.671-3.23,2.826,2.826,0,0,0-.446-1.63,3.777,3.777,0,0,0-1.315-1.13,9.943,9.943,0,0,0-2.183-.87c-0.876-.25-1.893-0.52-3.051-0.78-1.336-.33-2.5-0.65-3.476-0.98a10.594,10.594,0,0,1-2.428-1.12,3.955,3.955,0,0,1-1.425-1.53,5.037,5.037,0,0,1-.467-2.3,6.582,6.582,0,0,1,.69-3.07,6.318,6.318,0,0,1,1.871-2.21,8.53,8.53,0,0,1,2.762-1.31,12.239,12.239,0,0,1,3.364-.45,13,13,0,0,1,4.855.87,9.627,9.627,0,0,1,3.52,2.3l-1.469,1.78a8.244,8.244,0,0,0-3.141-2.01,11.384,11.384,0,0,0-3.855-.66,9.745,9.745,0,0,0-2.226.24,5.21,5.21,0,0,0-1.8.78,3.881,3.881,0,0,0-1.226,1.36,4.044,4.044,0,0,0-.445,1.94,3.162,3.162,0,0,0,.312,1.51A2.6,2.6,0,0,0,520.483,5719.26Zm-7.974,3.99H492.685a9.717,9.717,0,0,0,.868,3.45,9.585,9.585,0,0,0,1.872,2.74,8.084,8.084,0,0,0,2.627,1.81,7.941,7.941,0,0,0,3.186.64,8.313,8.313,0,0,0,2.272-.31,9.388,9.388,0,0,0,2.049-.84,7.285,7.285,0,0,0,1.671-1.32,5.871,5.871,0,0,0,1.136-1.71l2.628,0.71a7.8,7.8,0,0,1-1.514,2.34,10.229,10.229,0,0,1-2.273,1.82,11.074,11.074,0,0,1-2.851,1.21,12.276,12.276,0,0,1-3.207.42,11.276,11.276,0,0,1-8.375-3.59,12.066,12.066,0,0,1-2.428-3.85,12.484,12.484,0,0,1-.869-4.68,12.234,12.234,0,0,1,.869-4.61,11.632,11.632,0,0,1,6.1-6.37,11.31,11.31,0,0,1,12.942,2.61,12.2,12.2,0,0,1,3.207,8.33c0,0.24-.007.47-0.022,0.71A2.273,2.273,0,0,1,512.509,5723.25Zm-3.676-5.72a9.168,9.168,0,0,0-1.87-2.65,8.032,8.032,0,0,0-2.651-1.74,8.483,8.483,0,0,0-6.416,0,8.012,8.012,0,0,0-2.651,1.74,8.506,8.506,0,0,0-1.826,2.67,10.166,10.166,0,0,0-.825,3.38H509.7A9.345,9.345,0,0,0,508.833,5717.53Zm-24.747,16.24-8.554-11.9-4.988,4.63v7.27h-3.03v-32.53h3.03v22.1L483.6,5710.6h3.431l-9.49,9.49,9.847,13.68h-3.3Zm-24.591-26.7a1.83,1.83,0,1,1,1.827-1.83A1.829,1.829,0,0,1,459.5,5707.07Zm-8.642,26.96a4.486,4.486,0,0,1-3.3-1.18,4.42,4.42,0,0,1-1.2-3.32v-28.29h3.028v27.27a2.8,2.8,0,0,0,.714,2.03,2.66,2.66,0,0,0,2,.73,5.9,5.9,0,0,0,1.157-.13,7.581,7.581,0,0,0,1.248-.36l0.535,2.45a9.971,9.971,0,0,1-2.072.58A11.9,11.9,0,0,1,450.853,5734.03Zm-123.389-3.38a10.348,10.348,0,0,1-3.341,2.6,9.451,9.451,0,0,1-4.255.96,9.318,9.318,0,0,1-5.212-1.49,11.8,11.8,0,0,1-3.653-3.77v14.3h-3.029v-32.7h2.718v4.5a11.331,11.331,0,0,1,3.7-3.54,9.518,9.518,0,0,1,4.946-1.36,9.845,9.845,0,0,1,4.432,1.01,11.181,11.181,0,0,1,3.5,2.67,12.42,12.42,0,0,1,2.294,3.85,12.665,12.665,0,0,1,.824,4.5,14.065,14.065,0,0,1-.757,4.64A11.877,11.877,0,0,1,327.464,5730.65Zm-0.868-12.03a9.948,9.948,0,0,0-1.827-2.99,8.774,8.774,0,0,0-2.74-2.05,7.85,7.85,0,0,0-3.408-.75,6.854,6.854,0,0,0-2.4.46,10.917,10.917,0,0,0-2.362,1.25,8.153,8.153,0,0,0-1.892,1.83,4.923,4.923,0,0,0-.959,2.2v7.13a10.65,10.65,0,0,0,1.359,2.32,9.67,9.67,0,0,0,1.872,1.85,8.573,8.573,0,0,0,2.271,1.22,7.436,7.436,0,0,0,5.9-.35,8.6,8.6,0,0,0,2.606-2.12,9.509,9.509,0,0,0,1.672-2.99,10.454,10.454,0,0,0,.578-3.45A9.583,9.583,0,0,0,326.6,5718.62Zm-26.841,12.03a11.318,11.318,0,0,1-3.653,2.6,11.659,11.659,0,0,1-9.266,0,11.311,11.311,0,0,1-3.654-2.6,11.91,11.91,0,0,1-2.383-3.83,12.606,12.606,0,0,1-.846-4.59,12.426,12.426,0,0,1,.869-4.64,12.2,12.2,0,0,1,2.4-3.83,11.712,11.712,0,0,1,3.653-2.63,11.338,11.338,0,0,1,9.222,0,11.712,11.712,0,0,1,3.653,2.63,12.2,12.2,0,0,1,2.406,3.83,12.7,12.7,0,0,1,0,9.23A12.2,12.2,0,0,1,299.755,5730.65Zm-0.512-12.1a9.429,9.429,0,0,0-1.827-2.98,8.748,8.748,0,0,0-2.673-2.01,7.344,7.344,0,0,0-3.251-.73,7.488,7.488,0,0,0-3.275.73,8.307,8.307,0,0,0-2.673,2.03,10.344,10.344,0,0,0-1.827,10.31,9.352,9.352,0,0,0,1.782,2.94,8.042,8.042,0,0,0,2.673,1.98,7.629,7.629,0,0,0,3.275.72,7.5,7.5,0,0,0,3.274-.74,8.775,8.775,0,0,0,2.695-2,9.678,9.678,0,0,0,1.827-2.96A10.278,10.278,0,0,0,299.243,5718.55Zm-27.086,2.25c0-2.64-.454-4.62-1.359-5.92a4.536,4.536,0,0,0-3.987-1.96,6.82,6.82,0,0,0-2.562.51,9.58,9.58,0,0,0-4.322,3.5,8.826,8.826,0,0,0-1.225,2.62v14.22h-3.029v-32.53H258.7v14.57a10.854,10.854,0,0,1,3.876-4.14,9.826,9.826,0,0,1,5.257-1.52,7.268,7.268,0,0,1,3.408.74,6.01,6.01,0,0,1,2.272,2.05,9.163,9.163,0,0,1,1.27,3.16,19.2,19.2,0,0,1,.4,4.08v13.59h-3.029V5720.8Zm-30.383,13.41a16.252,16.252,0,0,1-5.3-.89,12.815,12.815,0,0,1-4.455-2.58l1.381-2.05a14.916,14.916,0,0,0,3.988,2.4,11.584,11.584,0,0,0,4.343.8,7.819,7.819,0,0,0,4.477-1.13,3.686,3.686,0,0,0,1.671-3.23,2.818,2.818,0,0,0-.446-1.63,3.773,3.773,0,0,0-1.314-1.13,9.963,9.963,0,0,0-2.183-.87c-0.876-.25-1.893-0.52-3.052-0.78-1.337-.33-2.5-0.65-3.475-0.98a10.614,10.614,0,0,1-2.428-1.12,3.955,3.955,0,0,1-1.425-1.53,5.05,5.05,0,0,1-.467-2.3,6.57,6.57,0,0,1,.69-3.07,6.284,6.284,0,0,1,1.87-2.21,8.559,8.559,0,0,1,2.762-1.31,12.246,12.246,0,0,1,3.365-.45,13.008,13.008,0,0,1,4.855.87,9.619,9.619,0,0,1,3.52,2.3l-1.47,1.78a8.244,8.244,0,0,0-3.141-2.01,11.381,11.381,0,0,0-3.853-.66,9.757,9.757,0,0,0-2.228.24,5.234,5.234,0,0,0-1.805.78,3.856,3.856,0,0,0-1.224,1.36,4.021,4.021,0,0,0-.446,1.94,3.162,3.162,0,0,0,.312,1.51,2.615,2.615,0,0,0,1.024,1,7.841,7.841,0,0,0,1.8.76c0.727,0.22,1.61.46,2.651,0.69,1.484,0.36,2.79.71,3.92,1.07a12.285,12.285,0,0,1,2.829,1.25,4.815,4.815,0,0,1,1.714,1.74,4.974,4.974,0,0,1,.58,2.49,6.056,6.056,0,0,1-2.45,5.08A10.585,10.585,0,0,1,241.774,5734.21Zm219.235-.44h-3.028v-23.22h3.028v23.22Z" transform="translate(-232.031 -5701.25)"/>
  <path id="hand" class="cls-2" d="M419.239,5734.57c-6,2.3-6.122-6.38-5.342-9.38s4.8-8.71,4.8-8.71l-4.082-.12a37.979,37.979,0,0,1-8.877,14.86,12.55,12.55,0,0,1-1.287,1.28c-0.249.24-.4,0.37-0.4,0.37s-0.033.01-.086,0.03a7.272,7.272,0,0,1-3.942,1.66c-3.556.23-4.186-5.13-4.186-5.13-4.051,5.49-8.057,5.94-9.723,3.02s-1.035-6.84-.765-9.77a20.751,20.751,0,0,1,1.193-4.5,4.617,4.617,0,0,1-2.136-.71c0.862,11.07-7.376,15.21-7.376,15.21-6.227,4.14-12.933,1.05-13.507-5.06-0.49-5.19,4.406-16.92,10.729-17.98s6.8,3.69,6.8,3.69c-6.322-1.36-10.441,8.65-10.441,8.65-4.12,10.67-.384,10.5,1.054,10.32,4.109-.5,6.705-7.9,7.567-11.37s-1.93-3.83-1.93-3.83c0.561-3.47,4.325-2.72,5.475-2.64s1.054,1.51,3.161,1.43a2.555,2.555,0,0,0,1.792-.55c0.072-.15.144-0.3,0.218-0.45,0-.03,0-0.05,0-0.05a0.115,0.115,0,0,1,.024-0.01c1.162-2.32,2.589-4.35,4.036-4.93a4.206,4.206,0,0,1,5,.94c-3.466,4.59-5.131,12.25-4.095,15.49s3.376-1.67,3.376-1.67c1.395-7.38,3.961-12.02,6.841-13.86a3.66,3.66,0,0,1,4.862.45,24.928,24.928,0,0,0-4.457,12.2c-0.045,1.93.315,4.27,1.125,4.09a1.708,1.708,0,0,0,.381-0.16,12.232,12.232,0,0,0,1.172-1.01c0.231-.26.383-0.45,0.383-0.45,0.094-.09.173-0.15,0.262-0.23,3.766-4.28,5.116-11.07,5.116-11.07-2.46-1.62-1.62-6.12-1.62-6.12,0.719-5.76,5.881-5.22,5.881-5.22-1.019,1.26-.3,4.92-0.3,4.92,2.178,4.55,7.741,2.7,10.322,1.29s1.861,1.59,1.861,1.59a37.814,37.814,0,0,0-6.842,10.95c-2.341,6.15-.239,7.3.96,7s3.3-2.94,3.676-6.35a18.294,18.294,0,0,1,1.795-6.04c1.93-2.06,4.253-.64,2.751,3.62S425.24,5732.27,419.239,5734.57Zm-59.4,3.52c8.72,0.83,17.173,1.49,24,2.05,12.462,1.01,26.156,2.28,38.36-1.2,5.93-1.69,12.629-5.44,14.658-11.66-0.288.88-.143,2.09-0.379,3.03-4.206,16.87-25.087,15.74-38.23,14.08-12.368-1.57-26.548-2.73-39.1-3.2a41.965,41.965,0,0,1-3.186,8.74c-2.762,5.47-7.562,11.4-12.183,13.56s-13.805,1.56-18.786-4.32-5.761-14.7,4.682-19.08,23.647-2.82,23.647-2.82a22.862,22.862,0,0,0,1.68-9.13s-3.039,4.68-7.083,6.43c-7.525,3.25-7.2-12.43-2.94-19.09s7.922-5.1,8.822-3.45c0,0-5.2,8.89-4.591,14.39,0.569,5.18,5.312-1.58,5.972-2.84s0.6-8.28,5.341-12.42c0,0,3-1.56,4.982.48,0,0-3.423,2.67-4.141,13.92A96.849,96.849,0,0,1,359.834,5738.09Zm-27.18,5.15s-8.895,3.64-5.519,11.06c2.237,4.92,8.339,4.59,8.339,4.59s5.842,0,10.533-6.21c5.943-7.88,6.37-12.03,6.37-12.03S339.284,5740.04,332.654,5743.24Z" transform="translate(-232.031 -5701.25)"/>
</svg>
